<svg fill="none" height="20" viewBox="0 0 20 20" width="20" xmlns="http://www.w3.org/2000/svg"><path d="m19.59 8.45999c-.0699.08996-.1593.16284-.2615.21309-.1023.05024-.2146.07655-.3285.07691-.167.00009-.3291-.05629-.46-.16l-.79-.59v10.00001c-.0026.4633-.1878.9069-.5155 1.2345-.3276.3276-.7712.5129-1.2345.5155h-3.5c-.1981-.0026-.3874-.0825-.5275-.2225-.1401-.1401-.2199-.3294-.2225-.5275v-6c0-.0663-.0263-.1299-.0732-.1768s-.1105-.0732-.1768-.0732h-2.99999c-.0663 0-.12989.0263-.17678.0732-.04688.0469-.07322.1105-.07322.1768v6c-.00259.1981-.08244.3874-.22253.5275-.1401.14-.32936.2199-.52747.2225h-3.5c-.46332-.0026-.90691-.1879-1.23454-.5155-.32762-.3276-.51283-.7712-.51546-1.2345v-10.00001l-.79.61c-.13089.1037-.29301.16009-.46.16-.113909-.00036-.226239-.02667-.328468-.07691-.102228-.05025-.191667-.12313-.261531-.21309-.061453-.07705-.106896-.1656-.133662-.26045s-.034316-.19409-.022207-.2919c.01211-.09781.043635-.19221.092725-.27767s.114756-.16025.193143-.21998l9-7.000004h.05l.14-.070001h.13.27999.13l.14.070001h.05l9 7.000004c.1525.12027.2516.29568.2759.48837.0244.1927-.0281.38723-.1459.54163z" fill="#3c3c3c"/></svg>